Coordinates
version=1
nRows=17
nColumns=36
inDegrees=yes

Units are S.I. units (second, meters, Newtons, ...)
If the header above contains a line with 'inDegrees', this indicates whether rotational values are in degrees (yes) or radians (no).

endheader
time	pelvis_tilt	pelvis_list	pelvis_rotation	pelvis_tx	pelvis_ty	pelvis_tz	hip_flexion_r	hip_adduction_r	hip_rotation_r	knee_angle_r	knee_angle_r_beta	ankle_angle_r	subtalar_angle_r	mtp_angle_r	hip_flexion_l	hip_adduction_l	hip_rotation_l	knee_angle_l	knee_angle_l_beta	ankle_angle_l	subtalar_angle_l	mtp_angle_l	lumbar_extension	lumbar_bending	lumbar_rotation	arm_flex_r	arm_add_r	arm_rot_r	elbow_flex_r	pro_sup_r	arm_flex_l	arm_add_l	arm_rot_l	elbow_flex_l	pro_sup_l
      0.00000000	      0.93787336	     -0.51140657	      9.77558423	     -0.13786581	      1.24787702	      0.34036135	     -2.76593752	      0.11039539	     -1.55676322	      0.27963804	      0.00488060	      5.67119135	     -3.06673953	     -6.26516844	     -2.50343858	     -0.99101595	      2.81866482	      4.29920728	      0.07503532	      5.63357411	     -5.15174195	     -6.26516844	     -2.51863550	      0.66352275	      0.37374456	      1.60975901	     -6.95920837	     -1.09730726	     18.70807295	     89.46453771	      6.32362160	     -7.41764339	     10.55617699	     13.86244045	     87.99760258
      0.01666670	      1.46946701	     -0.93773052	      9.24802568	     -0.13776370	      1.24676964	      0.33981058	     -3.27479846	      0.54104315	      0.68080626	      0.24752378	      0.00432010	      7.54005472	     -2.83498455	     -6.52404515	     -3.83961273	     -1.38708779	      3.47899055	      2.81357247	      0.04910610	      6.62527031	     -5.72422003	     -6.52404515	     -2.42486367	      1.26371296	      1.14584435	      2.66976010	     -7.12745063	      0.28415370	     16.38238503	     87.73760450	      6.83765485	     -6.66269075	     10.79378335	     12.10795941	     85.97928845
      0.03333330	      1.12616349	     -1.12198770	      8.95211493	     -0.13702275	      1.24821143	      0.33981333	     -2.94127120	      0.66335332	      1.67661373	      0.21806853	      0.00380601	      7.58291026	     -3.02455651	     -6.77638675	     -3.55707264	     -1.36921079	      3.85065774	      2.35492713	      0.04110123	      5.87782882	     -7.02777990	     -6.77638675	     -1.71042506	      1.55625265	      1.08132157	      3.43368795	     -7.57554084	      4.60523727	     14.57020672	     90.40526313	      7.01015503	     -6.45585749	     12.68213992	     10.56977765	     87.91770398
      0.05000000	      1.33891529	     -1.20532598	      9.23472476	     -0.13813937	      1.24802967	      0.33931091	     -3.19872338	      0.77091980	      1.63499965	      0.20726924	      0.00361753	      7.65946710	     -2.92193287	     -6.89808706	     -3.88731287	     -1.44785163	      3.58997218	      1.93607429	      0.03379087	      5.72892984	     -6.67394628	     -6.89808706	     -1.80492167	      1.80439737	      0.96279675	      3.79360903	     -7.61007053	      5.07869849	     13.96164610	     89.40330016	      7.38729480	     -6.16217364	     12.68996846	      9.94436425	     87.16473433
      0.06666670	      1.29687792	     -1.21558989	      9.20588370	     -0.13757915	      1.25083411	      0.33924741	     -3.22858664	      0.76221394	      1.71424641	      0.20464821	      0.00357179	      7.82978212	     -2.76422913	     -7.21589763	     -3.87958203	     -1.40924324	      3.26721079	      1.83434267	      0.03201532	      5.60856683	     -6.48373982	     -7.21589763	     -1.34511286	      1.87940643	      1.06269179	      3.87967903	     -7.49578616	      2.70155558	     13.70935599	     97.56225659	      7.29041625	     -5.83629856	      9.11147999	      9.32799398	     97.43437956
      0.08333330	      1.12895860	     -1.16986868	      9.01807020	     -0.13768626	      1.24432655	      0.33924033	     -3.01077518	      0.65304277	      2.01115011	      0.21242155	      0.00370746	      7.77121815	     -2.99929541	     -7.25356537	     -3.61056483	     -1.25926578	      2.96256687	      1.88380008	      0.03287851	      5.67550525	     -6.20476115	     -7.25356537	     -0.90270324	      1.87130867	      1.15074613	      4.13446260	     -7.47564123	      4.00600451	     13.01727609	     95.62702257	      7.44644896	     -5.75293834	      9.99617566	      8.60876911	     95.65678534
      0.10000000	      1.07899669	     -1.20125036	      8.96593506	     -0.13694975	      1.24492687	      0.33944344	     -2.96833619	      0.66322426	      2.08919546	      0.22601249	      0.00394466	      7.81049979	     -3.02331638	     -7.37306943	     -3.49350421	     -1.25949078	      2.78101575	      2.04043913	      0.03561238	      5.72374499	     -6.00819517	     -7.37306943	     -0.67519769	      1.94105806	      1.15369963	      4.10203120	     -7.43136073	      3.62552463	     13.11691860	     97.96285096	      7.47123076	     -5.77311708	      9.51735812	      8.40852796	     99.76769788
      0.11666670	      0.99896643	     -1.19311195	      8.79085535	     -0.13748901	      1.24519777	      0.33953342	     -2.89070858	      0.63533733	      2.23892948	      0.23651045	      0.00412789	      7.67444485	     -3.19249706	     -7.38291377	     -3.29342525	     -1.19481347	      2.43110689	      2.17981125	      0.03804488	      5.49753174	     -6.19429604	     -7.38291377	     -0.51032831	      1.96298766	      0.97789975	      4.16374190	     -7.35255461	      3.97145984	     13.19149702	     96.71562463	      7.40578594	     -5.85785372	      9.73510381	      8.39546982	     98.48222810
      0.13333330	      0.77708285	     -1.20739770	      8.67474953	     -0.13700145	      1.24276396	      0.33986298	     -2.65883368	      0.62126653	      2.28026775	      0.24649012	      0.00430206	      7.50279007	     -3.25152747	     -7.42559303	     -2.90955082	     -1.15922329	      1.88031464	      2.35869373	      0.04116697	      5.56729834	     -5.69209652	     -7.42559303	     -0.08670983	      1.93235228	      0.85201878	      4.08685053	     -7.32528853	      5.66675634	     12.79280964	     97.15992476	      7.62520831	     -6.00109708	     11.35186234	      7.83635856	     99.92337988
      0.15000000	      0.77376917	     -1.21869344	      8.54760479	     -0.13760448	      1.24284008	      0.33992904	     -2.65649868	      0.62823760	      2.37415257	      0.25403796	      0.00443380	      7.58761593	     -3.15564360	     -7.43976247	     -2.86407721	     -1.16150606	      1.53473909	      2.40296020	      0.04193957	      5.59323185	     -5.43205467	     -7.43976247	     -0.04975923	      1.95860437	      0.62933042	      4.05693589	     -7.22920992	      5.95931565	     12.89738215	     94.56461554	      7.67260857	     -6.07677998	     11.57148009	      8.01843257	     97.14878415
      0.16666670	      0.40154577	     -1.29669295	      8.41571704	     -0.13683964	      1.24275864	      0.34013488	     -2.24131869	      0.67505789	      2.54126391	      0.26769086	      0.00467209	      7.46657504	     -3.39542066	     -7.45984532	     -2.31122961	     -1.17907261	      1.13826367	      2.62806996	      0.04586847	      5.62267362	     -5.31760569	     -7.45984532	      0.57584595	      1.91492447	      0.63000849	      3.84004062	     -7.09198314	      4.47585669	     12.91108349	     99.19177682	      7.74424721	     -6.12985007	     10.50012992	      7.66577873	    103.19490450
      0.18333330	      0.21443934	     -1.34467931	      8.34174192	     -0.13728028	      1.24266089	      0.34015818	     -2.07752594	      0.71375512	      2.53224420	      0.27296694	      0.00476417	      7.52241784	     -3.31925666	     -7.46080736	     -1.97970780	     -1.20769758	      0.97232385	      2.79476997	      0.04877794	      5.53671641	     -5.35030724	     -7.46080736	      0.86936977	      1.90722563	      0.49621531	      3.67673879	     -7.02582715	      4.32958416	     13.09454938	     99.39701950	      7.84033425	     -6.21383037	     10.55607932	      7.69389912	    103.45626108
      0.20000000	      0.08762119	     -1.35239733	      8.31632555	     -0.13652386	      1.24293475	      0.34026684	     -1.99069002	      0.72837802	      2.62094516	      0.28187469	      0.00491964	      7.50925287	     -3.56200143	     -7.46503404	     -1.80598792	     -1.20594459	      0.74299572	      2.87324698	      0.05014762	      5.66707442	     -5.07514651	     -7.46503404	      1.10494132	      1.83995294	      0.23085210	      3.65930615	     -7.00008286	      5.19235100	     13.02989198	     99.27406957	      7.98017587	     -6.42179306	     11.45471760	      7.73194422	    103.21523481
      0.21666670	     -0.09906340	     -1.41286218	      8.24144283	     -0.13725564	      1.24627985	      0.34031327	     -1.81449388	      0.78096391	      2.78857223	      0.29651354	      0.00517514	      7.49700135	     -3.71825341	     -7.47383683	     -1.58862789	     -1.24452536	      0.64162990	      2.93071462	      0.05115062	      5.38160499	     -5.31677433	     -7.47383683	      1.43767418	      1.85447036	      0.04356448	      3.63376694	     -6.99331930	      6.27102395	     12.84952969	     98.04571562	      8.16209833	     -6.52907737	     12.61339235	      7.62782710	    102.03283787
      0.23333330	     -0.15372161	     -1.43447456	      8.14490831	     -0.13657736	      1.24654165	      0.34040979	     -1.77663757	      0.81714460	      2.88681654	      0.30737550	      0.00536471	      7.49919391	     -3.86383045	     -7.47809886	     -1.47353351	     -1.26606029	      0.47924518	      3.09068855	      0.05394269	      5.48186712	     -5.11358129	     -7.47809886	      1.49318183	      1.78839429	     -0.04667412	      3.55029662	     -6.96753420	      6.38105784	     13.01664516	     99.41709806	      8.40892514	     -6.70477588	     12.96007459	      7.77318461	    103.73595889
      0.25000000	     -0.21554113	     -1.45031162	      8.00403645	     -0.13716549	      1.24634194	      0.34041908	     -1.73451499	      0.84140564	      2.93027576	      0.33016778	      0.00576251	      7.54158559	     -3.85052214	     -7.47850743	     -1.32313184	     -1.28653089	      0.26318243	      3.29549734	      0.05751728	      5.65783205	     -5.00394498	     -7.47850743	      1.55021599	      1.77047588	      0.01070137	      3.45691288	     -6.95119704	      6.22465028	     13.19332500	     98.80942268	      8.66253323	     -6.69913438	     12.79710741	      7.33170506	    103.53671966
      0.26666670	     -0.23233327	     -1.47482665	      7.85281011	     -0.13642955	      1.24652505	      0.34053982	     -1.74664259	      0.87714344	      2.94902734	      0.35044809	      0.00611647	      7.45958490	     -3.97701908	     -7.47890916	     -1.26482507	     -1.32049493	      0.02348080	      3.40758734	      0.05947362	      5.70100940	     -4.81643703	     -7.47890916	      1.54180580	      1.79239877	     -0.14817734	      3.58457188	     -6.89645370	      5.69354025	     12.99671530	    100.53285648	      8.58504825	     -6.91586783	     12.13701798	      7.70465639	    105.32914371
